<svg class="diagram-root" style="background: #f5f6f6" xmlns="http://www.w3.org/2000/svg" xmlns:xlink="http://www.w3.org/1999/xlink"><style>.diagram-root { font-family: "Helvetica Neue", sans-serif; font-size: 12px; } .t { overflow: visible; } .t-bg { y: 40; fill: #fff;   } .th { fill: #005aa0;   } .tht { fill: #fff; font-size: 14px;  } .tf { fill: #323c46; overflow: visible; } .tf.pk { fill: #005aa0; font-weight: bold; } .tf.fk { font-weight: bold; } .ty { fill: #adb1b5; font-weight: normal; text-anchor: end; } .r { fill: transparent; stroke: #c3c3c3; stroke-width: 1; } .l { stroke: 1; } .i { fill: #c2c7ce; stroke: #c2c7ce; } .i.ix { fill: #afb3b6; stroke: #000; } .fa { fill: transparent; overflow: visible; } .fa .bg.hover { fill: #f7f7f7; } .c { cy: 12; r: 4; stroke: #d2d2dc; fill: #d2d2dc; } .hr { fill: transparent; stroke: #323c46; stroke-opacity: 0.035; stroke-width: 13; } .dc { stroke: #fa5a3c; fill: #fa5a3c; } .x { stroke: white; stroke-width: 1; } .hl .th { fill: #1b9bff; } .hl .tht {  } .fhl .bg { fill: #e7f4ff; } .fhls .bg {  } .r.hl { stroke: #1b9bff; } .dim { opacity: 0.25; }</style><g class="drawing-wrapper" transform="translate(189, 247) scale(1,1)"><g class="rs"><path d="M 667 1 m -1, 0 a 1,1 0 1,0 2,0 a 1,1 0 1,0 -2,0 M 667 1 m -0.5, 0 a 0.5,0.5 0 1,0 1,0 a 0.5,0.5 0 1,0 -1,0  M667 1 L667 1 655 1 M 667 7 m -1, 0 a 1,1 0 1,0 2,0 a 1,1 0 1,0 -2,0 M 667 7 m -0.5, 0 a 0.5,0.5 0 1,0 1,0 a 0.5,0.5 0 1,0 -1,0  M667 7 L667 7 660 1 667 -5 M 667 -5 m -1, 0 a 1,1 0 1,0 2,0 a 1,1 0 1,0 -2,0 M 667 -5 m -0.5, 0 a 0.5,0.5 0 1,0 1,0 a 0.5,0.5 0 1,0 -1,0  M655 1 Q 621.42 1, 587.83 95 T 520.65 189 M 508.65 189 m -1, 0 a 1,1 0 1,0 2,0 a 1,1 0 1,0 -2,0 M 508.65 189 m -0.5, 0 a 0.5,0.5 0 1,0 1,0 a 0.5,0.5 0 1,0 -1,0  M508.65 189 L508.65 189 520.65 189 M514.65 195 L514.65 195 514.65 183" id="h2312913921" class="r"></path><path d="M 360 -25 m -1, 0 a 1,1 0 1,0 2,0 a 1,1 0 1,0 -2,0 M 360 -25 m -0.5, 0 a 0.5,0.5 0 1,0 1,0 a 0.5,0.5 0 1,0 -1,0  M360 -25 L360 -25 348 -25 M354 -19 L354 -19 354 -31 M348 -25 Q 319.93 -25, 291.86 -65.5 T 235.72 -106 M 223.72 -106 m -1, 0 a 1,1 0 1,0 2,0 a 1,1 0 1,0 -2,0 M 223.72 -106 m -0.5, 0 a 0.5,0.5 0 1,0 1,0 a 0.5,0.5 0 1,0 -1,0  M223.72 -106 L223.72 -106 235.72 -106 M229.72 -100 L229.72 -100 229.72 -112" id="h2634591858" class="r"></path><path d="M 489.39 0 m -1, 0 a 1,1 0 1,0 2,0 a 1,1 0 1,0 -2,0 M 489.39 0 m -0.5, 0 a 0.5,0.5 0 1,0 1,0 a 0.5,0.5 0 1,0 -1,0  M489.39 0 L489.39 0 501.39 0 M495.39 6 L495.39 6 495.39 -6 M501.39 0 Q 539.79 0, 578.19 0.5 T 655 1 M 667 1 m -1, 0 a 1,1 0 1,0 2,0 a 1,1 0 1,0 -2,0 M 667 1 m -0.5, 0 a 0.5,0.5 0 1,0 1,0 a 0.5,0.5 0 1,0 -1,0  M667 1 L667 1 655 1 M661 7 L661 7 661 -5" id="h2931529181" class="r"></path><path d="M 369 214 m -1, 0 a 1,1 0 1,0 2,0 a 1,1 0 1,0 -2,0 M 369 214 m -0.5, 0 a 0.5,0.5 0 1,0 1,0 a 0.5,0.5 0 1,0 -1,0  M369 214 L369 214 357 214 M363 220 L363 220 363 208 M357 214 Q 326.68 214, 296.36 54 T 235.72 -106 M 223.72 -106 m -1, 0 a 1,1 0 1,0 2,0 a 1,1 0 1,0 -2,0 M 223.72 -106 m -0.5, 0 a 0.5,0.5 0 1,0 1,0 a 0.5,0.5 0 1,0 -1,0  M223.72 -106 L223.72 -106 235.72 -106 M 223.72 -100 m -1, 0 a 1,1 0 1,0 2,0 a 1,1 0 1,0 -2,0 M 223.72 -100 m -0.5, 0 a 0.5,0.5 0 1,0 1,0 a 0.5,0.5 0 1,0 -1,0  M223.72 -100 L223.72 -100 230.72 -106 223.72 -112 M 223.72 -112 m -1, 0 a 1,1 0 1,0 2,0 a 1,1 0 1,0 -2,0 M 223.72 -112 m -0.5, 0 a 0.5,0.5 0 1,0 1,0 a 0.5,0.5 0 1,0 -1,0 " id="h3397472990" class="r"></path><path d="M 223.72 -106 m -1, 0 a 1,1 0 1,0 2,0 a 1,1 0 1,0 -2,0 M 223.72 -106 m -0.5, 0 a 0.5,0.5 0 1,0 1,0 a 0.5,0.5 0 1,0 -1,0  M223.72 -106 L223.72 -106 235.72 -106 M229.72 -100 L229.72 -100 229.72 -112 M235.72 -106 Q 262.79 -106, 289.86 -133 T 344 -160 M 356 -160 m -1, 0 a 1,1 0 1,0 2,0 a 1,1 0 1,0 -2,0 M 356 -160 m -0.5, 0 a 0.5,0.5 0 1,0 1,0 a 0.5,0.5 0 1,0 -1,0  M356 -160 L356 -160 344 -160 M350 -154 L350 -154 350 -166" id="h2277846134" class="r"></path><path d="M -26.3 -77 m -1, 0 a 1,1 0 1,0 2,0 a 1,1 0 1,0 -2,0 M -26.3 -77 m -0.5, 0 a 0.5,0.5 0 1,0 1,0 a 0.5,0.5 0 1,0 -1,0  M-26.3 -77 L-26.3 -77 -14.3 -77 M-20.3 -71 L-20.3 -71 -20.3 -83 M-14.3 -77 Q 4.53 -77, 23.35 -79 T 61 -81 M 73 -81 m -1, 0 a 1,1 0 1,0 2,0 a 1,1 0 1,0 -2,0 M 73 -81 m -0.5, 0 a 0.5,0.5 0 1,0 1,0 a 0.5,0.5 0 1,0 -1,0  M73 -81 L73 -81 61 -81 M 73 -75 m -1, 0 a 1,1 0 1,0 2,0 a 1,1 0 1,0 -2,0 M 73 -75 m -0.5, 0 a 0.5,0.5 0 1,0 1,0 a 0.5,0.5 0 1,0 -1,0  M73 -75 L73 -75 66 -81 73 -87 M 73 -87 m -1, 0 a 1,1 0 1,0 2,0 a 1,1 0 1,0 -2,0 M 73 -87 m -0.5, 0 a 0.5,0.5 0 1,0 1,0 a 0.5,0.5 0 1,0 -1,0 " id="h1490874341" class="r"></path></g><g class="hrs"></g><g class="ts"><svg width="150.72" height="225" x="73" y="-163" id="h2700592312" class="t"><rect height="40" width="150.72" class="th"></rect><text x="13" y="25" class="tht">employees_db</text><rect height="185" width="150.72" class="t-bg"></rect><text x="13" y="61" class="tf pk">emp_no<tspan x="137.72" class="ty">int</tspan></text><path d="M7,14A2,2 0 0,1 5,12A2,2 0 0,1 7,10A2,2 0 0,1 9,12A2,2 0 0,1 7,14M12.65,10C11.83,7.67 9.61,6 7, 6A6, 6 0 0, 0 1, 12A6, 6 0 0, 0 7, 18C9.61, 18 11.83, 16.33 12.65, 14H17V18H21V14H23V10H12.65Z" class="i pk" transform="translate(105.046171875, 48) scale(0.65)"></path><text x="13" y="86" class="tf fk">emp_title_id<tspan x="137.72" class="ty">varchar</tspan></text><text x="13" y="111" class="tf">birth_date<tspan x="137.72" class="ty">varchar</tspan></text><text x="13" y="136" class="tf">first_name<tspan x="137.72" class="ty">varchar</tspan></text><text x="13" y="161" class="tf">last_name<tspan x="137.72" class="ty">varchar</tspan></text><text x="13" y="186" class="tf">sex<tspan x="137.72" class="ty">varchar</tspan></text><text x="13" y="211" class="tf">hire_date<tspan x="137.72" class="ty">varchar</tspan></text></svg><svg width="140.7" height="100" x="-167" y="-134" id="h2274063696" class="t"><rect height="40" width="140.7" class="th"></rect><text x="13" y="25" class="tht">titles_db</text><rect height="60" width="140.7" class="t-bg"></rect><text x="13" y="61" class="tf pk">title_id<tspan x="127.69999999999999" class="ty">varchar</tspan></text><path d="M7,14A2,2 0 0,1 5,12A2,2 0 0,1 7,10A2,2 0 0,1 9,12A2,2 0 0,1 7,14M12.65,10C11.83,7.67 9.61,6 7, 6A6, 6 0 0, 0 1, 12A6, 6 0 0, 0 7, 18C9.61, 18 11.83, 16.33 12.65, 14H17V18H21V14H23V10H12.65Z" class="i pk" transform="translate(67.68632812499999, 48) scale(0.65)"></path><text x="13" y="86" class="tf">title<tspan x="127.69999999999999" class="ty">varchar</tspan></text></svg><svg width="129.39" height="100" x="360" y="-82" id="h500541110" class="t"><rect height="40" width="129.39" class="th"></rect><text x="13" y="25" class="tht">dept_emp_db</text><rect height="60" width="129.39" class="t-bg"></rect><text x="13" y="61" class="tf pk">emp_no<tspan x="116.38999999999999" class="ty">int</tspan></text><path d="M7,14A2,2 0 0,1 5,12A2,2 0 0,1 7,10A2,2 0 0,1 9,12A2,2 0 0,1 7,14M12.65,10C11.83,7.67 9.61,6 7, 6A6, 6 0 0, 0 1, 12A6, 6 0 0, 0 7, 18C9.61, 18 11.83, 16.33 12.65, 14H17V18H21V14H23V10H12.65Z" class="i pk" transform="translate(83.71617187499999, 48) scale(0.65)"></path><text x="13" y="86" class="tf fk">dept_no<tspan x="116.38999999999999" class="ty">varchar</tspan></text></svg><svg width="122.04" height="100" x="356" y="-217" id="h3163553275" class="t"><rect height="40" width="122.04" class="th"></rect><text x="13" y="25" class="tht">salaries_db</text><rect height="60" width="122.04" class="t-bg"></rect><text x="13" y="61" class="tf pk">emp_no<tspan x="109.04" class="ty">int</tspan></text><path d="M7,14A2,2 0 0,1 5,12A2,2 0 0,1 7,10A2,2 0 0,1 9,12A2,2 0 0,1 7,14M12.65,10C11.83,7.67 9.61,6 7, 6A6, 6 0 0, 0 1, 12A6, 6 0 0, 0 7, 18C9.61, 18 11.83, 16.33 12.65, 14H17V18H21V14H23V10H12.65Z" class="i pk" transform="translate(76.366171875, 48) scale(0.65)"></path><text x="13" y="86" class="tf">salary<tspan x="109.04" class="ty">int</tspan></text></svg><svg width="139.65" height="100" x="369" y="132" id="h830119438" class="t"><rect height="40" width="139.65" class="th"></rect><text x="13" y="25" class="tht">dept_manager_db</text><rect height="60" width="139.65" class="t-bg"></rect><text x="13" y="61" class="tf fk">dept_no<tspan x="126.65" class="ty">varchar</tspan></text><text x="13" y="86" class="tf fk">emp_no<tspan x="126.65" class="ty">int</tspan></text></svg><svg width="149.39" height="100" x="667" y="-56" id="h795273643" class="t"><rect height="40" width="149.39" class="th"></rect><text x="13" y="25" class="tht">departments_db</text><rect height="60" width="149.39" class="t-bg"></rect><text x="13" y="61" class="tf pk">dept_no<tspan x="136.39" class="ty">varchar</tspan></text><path d="M7,14A2,2 0 0,1 5,12A2,2 0 0,1 7,10A2,2 0 0,1 9,12A2,2 0 0,1 7,14M12.65,10C11.83,7.67 9.61,6 7, 6A6, 6 0 0, 0 1, 12A6, 6 0 0, 0 7, 18C9.61, 18 11.83, 16.33 12.65, 14H17V18H21V14H23V10H12.65Z" class="i pk" transform="translate(76.37632812499999, 48) scale(0.65)"></path><text x="13" y="86" class="tf">dept_name<tspan x="136.39" class="ty">varchar</tspan></text></svg></g></g><text class="qdbd-link" x="10" y="20">www.quickdatabasediagrams.com</text></svg>